# 3ds Max Wavefront OBJ Exporter v0.99 - (c)2007 guruware
# File Created: 11.06.2026 17:03:52

#
# object F_16Canopy
#

v  0.856771 0.267864 -0.069864
v  0.798794 0.251814 -0.085292
v  0.798792 0.272229 -0.069669
v  0.855753 0.247716 -0.085816
v  0.798790 0.288650 -0.048756
v  0.857675 0.284658 -0.048973
v  0.798789 0.297145 -0.024607
v  0.858100 0.292725 -0.024609
v  0.798788 0.299787 -0.000000
v  0.858250 0.295522 -0.000000
v  0.688847 0.269566 -0.066208
v  0.647707 0.251549 -0.074323
v  0.640871 0.265791 -0.062835
v  0.693809 0.252169 -0.079031
v  0.684801 0.284018 -0.046558
v  0.634789 0.278303 -0.045009
v  0.682465 0.292167 -0.023639
v  0.630997 0.286103 -0.023327
v  0.681369 0.294989 -0.000000
v  0.629398 0.289193 -0.000000
v  1.066755 0.182240 -0.070154
v  1.015709 0.203382 -0.077397
v  1.070900 0.194612 -0.056603
v  1.019601 0.219039 -0.062214
v  1.022448 0.231311 -0.042736
v  1.074633 0.205137 -0.039013
v  1.121961 0.178721 -0.035182
v  1.077109 0.212066 -0.019852
v  1.125434 0.184107 -0.018115
v  1.078048 0.214702 -0.000000
v  1.126829 0.186270 -0.000000
v  0.740157 0.252915 -0.082910
v  0.738421 0.271726 -0.068698
v  0.737072 0.287590 -0.047776
v  0.736325 0.296561 -0.024342
v  0.736108 0.298918 -0.000000
v  0.962691 0.221460 -0.082529
v  0.966587 0.241086 -0.067018
v  0.969398 0.255249 -0.046277
v  0.971071 0.263936 -0.023455
v  1.024549 0.239680 -0.021485
v  0.971804 0.267366 -0.000000
v  1.025244 0.243445 -0.000000
v  1.006159 0.163984 -0.091835
v  0.953849 0.177278 -0.096381
v  1.011464 0.185463 -0.086019
v  0.958519 0.200446 -0.091136
v  0.852942 0.192395 -0.099195
v  0.798803 0.168622 -0.096548
v  0.798800 0.199004 -0.098664
v  0.851352 0.161773 -0.097610
v  0.747240 0.176155 -0.094189
v  0.744620 0.204556 -0.095810
v  0.667500 0.210833 -0.086152
v  0.706948 0.207733 -0.092076
v  0.678605 0.187990 -0.087224
v  0.714736 0.181715 -0.091386
v  1.061079 0.167173 -0.079500
v  0.854358 0.221391 -0.095614
v  0.798797 0.226725 -0.094776
v  0.742283 0.229870 -0.091425
v  0.699991 0.231341 -0.087931
v  0.656780 0.232885 -0.082867
v  1.053940 0.147230 -0.084186
v  1.171507 0.155165 -0.016360
v  1.172304 0.156945 -0.000000
v  1.168846 0.151118 -0.031130
v  0.915538 0.284518 -0.000000
v  0.915096 0.281471 -0.024255
v  0.913955 0.273309 -0.048386
v  0.911756 0.256501 -0.069001
v  0.909060 0.237100 -0.084677
v  0.905772 0.212502 -0.094175
v  0.902198 0.185968 -0.098516
v  0.949638 0.152601 -0.095438
v  0.898303 0.156577 -0.097083
v  1.103124 0.145799 -0.073145
v  1.107020 0.152659 -0.069959
v  1.126130 0.145640 -0.065106
v  1.164053 0.145590 -0.043964
v  1.117194 0.170739 -0.050552
v  1.150135 0.145589 -0.053293
v  1.112709 0.162682 -0.061515
v  1.002305 0.149677 -0.090733
v  0.798794 0.251814 0.085292
v  0.856771 0.267865 0.069863
v  0.798792 0.272228 0.069669
v  0.855753 0.247716 0.085816
v  0.798790 0.288650 0.048756
v  0.857675 0.284657 0.048973
v  0.798789 0.297145 0.024607
v  0.858100 0.292725 0.024609
v  0.647707 0.251549 0.074323
v  0.688847 0.269566 0.066208
v  0.640871 0.265792 0.062835
v  0.693809 0.252168 0.079031
v  0.684801 0.284018 0.046558
v  0.634789 0.278303 0.045009
v  0.682465 0.292167 0.023639
v  0.630997 0.286102 0.023327
v  1.015709 0.203382 0.077397
v  1.070901 0.194612 0.056603
v  1.019601 0.219039 0.062214
v  1.066755 0.182241 0.070154
v  1.022449 0.231311 0.042736
v  1.074633 0.205136 0.039013
v  0.740157 0.252914 0.082910
v  0.738421 0.271726 0.068698
v  0.737072 0.287590 0.047776
v  0.736325 0.296560 0.024342
v  0.962691 0.221459 0.082529
v  0.966587 0.241086 0.067018
v  0.969398 0.255249 0.046277
v  0.971071 0.263936 0.023455
v  1.024549 0.239679 0.021485
v  1.011464 0.185462 0.086019
v  0.958518 0.200446 0.091136
v  0.953849 0.177278 0.096381
v  1.006159 0.163984 0.091835
v  0.852942 0.192395 0.099195
v  0.798803 0.168622 0.096548
v  0.851352 0.161774 0.097610
v  0.798800 0.199004 0.098664
v  0.744620 0.204556 0.095810
v  0.747240 0.176155 0.094189
v  0.706948 0.207733 0.092076
v  0.667500 0.210833 0.086152
v  0.678605 0.187990 0.087224
v  0.714736 0.181715 0.091386
v  1.061079 0.167173 0.079500
v  0.854358 0.221391 0.095614
v  0.798797 0.226724 0.094776
v  0.742283 0.229871 0.091425
v  0.699991 0.231342 0.087931
v  0.656780 0.232885 0.082867
v  1.053940 0.147231 0.084186
v  1.171507 0.155165 0.016360
v  1.125434 0.184107 0.018115
v  1.168846 0.151117 0.031130
v  1.121961 0.178721 0.035182
v  1.117194 0.170740 0.050552
v  1.112709 0.162682 0.061515
v  1.107020 0.152658 0.069959
v  0.915096 0.281471 0.024255
v  0.913955 0.273309 0.048386
v  0.911756 0.256501 0.069001
v  0.909060 0.237101 0.084677
v  0.905772 0.212502 0.094175
v  0.902198 0.185968 0.098516
v  0.949638 0.152602 0.095438
v  0.898303 0.156577 0.097083
v  1.103124 0.145799 0.073145
v  1.126130 0.145641 0.065106
v  1.077109 0.212066 0.019852
v  1.164053 0.145590 0.043964
v  1.150135 0.145590 0.053293
v  1.002305 0.149677 0.090733
v  0.542426 0.228227 -0.064380
v  0.483631 0.238040 -0.046980
v  0.542966 0.242984 -0.058186
v  0.477912 0.224883 -0.051068
v  0.488566 0.248812 -0.039828
v  0.543463 0.255391 -0.049628
v  0.492121 0.256798 -0.029675
v  0.543915 0.264671 -0.036172
v  0.494336 0.261616 -0.015268
v  0.544304 0.270606 -0.018757
v  0.495137 0.263572 -0.000000
v  0.544608 0.273430 -0.000000
v  0.439755 0.241615 -0.030522
v  0.437414 0.233954 -0.037076
v  0.441533 0.247495 -0.022218
v  0.442641 0.250949 -0.011343
v  0.443041 0.252217 -0.000000
v  0.390945 0.229041 -0.026615
v  0.435108 0.227378 -0.040157
v  0.542100 0.218601 -0.065200
v  0.628663 0.210297 -0.080859
v  0.625774 0.205658 -0.079807
v  0.390945 0.233963 -0.021216
v  0.390945 0.237736 -0.014761
v  0.390945 0.239839 -0.007254
v  0.390945 0.240407 -0.000000
v  0.483631 0.238040 0.046980
v  0.542426 0.228227 0.064380
v  0.542966 0.242984 0.058186
v  0.477912 0.224883 0.051068
v  0.488566 0.248811 0.039828
v  0.543463 0.255391 0.049628
v  0.492121 0.256798 0.029675
v  0.543915 0.264671 0.036172
v  0.544304 0.270606 0.018757
v  0.494336 0.261616 0.015268
v  0.439755 0.241615 0.030522
v  0.437414 0.233954 0.037076
v  0.441533 0.247495 0.022218
v  0.442641 0.250949 0.011343
v  0.390945 0.229041 0.026615
v  0.435108 0.227378 0.040156
v  0.542100 0.218601 0.065200
v  0.625774 0.205658 0.079807
v  0.628663 0.210297 0.080859
v  0.594078 0.282805 -0.000000
v  0.595523 0.279766 0.022547
v  0.598702 0.273113 0.042606
v  0.604016 0.261971 0.058986
v  0.610171 0.249066 0.069665
v  0.618535 0.231531 0.078620
v  0.390945 0.233963 0.021216
v  0.390945 0.237736 0.014761
v  0.390945 0.239839 0.007254
v  0.595523 0.279766 -0.022547
v  0.598702 0.273113 -0.042607
v  0.604016 0.261972 -0.058986
v  0.610171 0.249066 -0.069665
v  0.618535 0.231531 -0.078620
# 216 vertices

vn 0.100200 0.700100 -0.706900
vn 0.000900 0.487400 -0.873200
vn 0.016100 0.703700 -0.710300
vn 0.072300 0.491000 -0.868100
vn 0.019800 0.877300 -0.479600
vn 0.120700 0.870800 -0.476700
vn 0.027700 0.974900 -0.220800
vn 0.131900 0.967900 -0.214100
vn 0.031400 0.999500 -0.000000
vn 0.132100 0.991200 -0.000000
vn -0.083800 0.694700 -0.714400
vn -0.100300 0.514800 -0.851400
vn -0.107000 0.721400 -0.684200
vn -0.085200 0.477900 -0.874300
vn -0.093800 0.873700 -0.477300
vn -0.112600 0.879500 -0.462400
vn -0.097600 0.967700 -0.232400
vn -0.112400 0.964600 -0.238700
vn -0.094300 0.995500 -0.000000
vn -0.110800 0.993800 -0.000000
vn 0.341300 0.527900 -0.777700
vn 0.284200 0.501700 -0.817000
vn 0.406300 0.679300 -0.611100
vn 0.362000 0.683200 -0.634200
vn 0.407600 0.794600 -0.449900
vn 0.445500 0.777700 -0.443500
vn 0.473500 0.765900 -0.435100
vn 0.475800 0.843700 -0.248600
vn 0.504900 0.827600 -0.245200
vn 0.491100 0.871100 -0.000000
vn 0.520400 0.853900 -0.000000
vn -0.049600 0.479100 -0.876300
vn -0.045200 0.701900 -0.710800
vn -0.044000 0.873900 -0.484100
vn -0.045400 0.972500 -0.228600
vn -0.046900 0.998900 -0.000000
vn 0.211700 0.465800 -0.859200
vn 0.284300 0.673300 -0.682500
vn 0.335800 0.823100 -0.457900
vn 0.349600 0.902400 -0.251900
vn 0.427900 0.863400 -0.267400
vn 0.353400 0.935500 -0.000000
vn 0.439200 0.898400 -0.000000
vn 0.134700 0.059700 -0.989100
vn 0.085200 0.079200 -0.993200
vn 0.206200 0.300500 -0.931200
vn 0.141700 0.271900 -0.951800
vn 0.008300 0.036700 -0.999300
vn -0.036800 -0.066100 -0.997100
vn -0.028200 0.034700 -0.999000
vn -0.009400 -0.050800 -0.998700
vn -0.074300 -0.065000 -0.995100
vn -0.072500 0.049900 -0.996100
vn -0.130400 0.061400 -0.989600
vn -0.112100 0.046800 -0.992600
vn -0.141600 -0.039800 -0.989100
vn -0.109400 -0.061700 -0.992100
vn 0.255000 0.294000 -0.921100
vn 0.040400 0.239000 -0.970200
vn -0.015000 0.250200 -0.968100
vn -0.057300 0.254400 -0.965400
vn -0.097400 0.249300 -0.963500
vn -0.104100 0.279100 -0.954600
vn 0.205600 0.126900 -0.970400
vn 0.528000 0.821300 -0.216200
vn 0.541900 0.840400 -0.000000
vn 0.495500 0.770700 -0.400600
vn 0.243400 0.969900 -0.000000
vn 0.244200 0.943100 -0.225500
vn 0.226900 0.848700 -0.477800
vn 0.183200 0.682700 -0.707400
vn 0.142100 0.482000 -0.864600
vn 0.088800 0.249300 -0.964300
vn 0.039600 0.056700 -0.997600
vn 0.057200 -0.049500 -0.997100
vn 0.016600 -0.050900 -0.998600
vn 0.283600 0.244500 -0.927300
vn 0.332700 0.362800 -0.870400
vn 0.380100 0.447100 -0.809700
vn 0.461300 0.706200 -0.537100
vn 0.436300 0.684000 -0.584700
vn 0.425600 0.610900 -0.667600
vn 0.393500 0.562300 -0.727300
vn 0.091100 -0.094000 -0.991400
vn 0.000900 0.487400 0.873200
vn 0.100200 0.700100 0.706900
vn 0.016100 0.703700 0.710300
vn 0.072300 0.491000 0.868100
vn 0.019800 0.877300 0.479600
vn 0.120700 0.870800 0.476700
vn 0.027700 0.974900 0.220800
vn 0.131900 0.967900 0.214100
vn -0.100300 0.514800 0.851400
vn -0.083800 0.694700 0.714400
vn -0.107000 0.721400 0.684200
vn -0.085200 0.477900 0.874300
vn -0.093700 0.873700 0.477300
vn -0.112600 0.879500 0.462400
vn -0.097600 0.967700 0.232400
vn -0.112400 0.964600 0.238600
vn 0.284200 0.501700 0.817000
vn 0.406300 0.679300 0.611100
vn 0.362000 0.683200 0.634200
vn 0.341300 0.527900 0.777700
vn 0.407600 0.794600 0.449900
vn 0.445500 0.777700 0.443500
vn -0.049600 0.479100 0.876300
vn -0.045200 0.701900 0.710800
vn -0.044000 0.873900 0.484100
vn -0.045400 0.972500 0.228600
vn 0.211700 0.465800 0.859200
vn 0.284300 0.673300 0.682600
vn 0.335800 0.823100 0.457900
vn 0.349600 0.902400 0.251900
vn 0.427900 0.863400 0.267400
vn 0.206200 0.300500 0.931200
vn 0.141700 0.271900 0.951800
vn 0.085200 0.079200 0.993200
vn 0.134700 0.059700 0.989100
vn 0.008300 0.036700 0.999300
vn -0.036800 -0.066100 0.997100
vn -0.009400 -0.050800 0.998700
vn -0.028200 0.034700 0.999000
vn -0.072500 0.049900 0.996100
vn -0.074300 -0.065000 0.995100
vn -0.112100 0.046800 0.992600
vn -0.130400 0.061400 0.989600
vn -0.141600 -0.039800 0.989100
vn -0.109400 -0.061700 0.992100
vn 0.255000 0.294000 0.921100
vn 0.040400 0.239000 0.970200
vn -0.015000 0.250200 0.968100
vn -0.057300 0.254400 0.965400
vn -0.097400 0.249400 0.963500
vn -0.104100 0.279100 0.954600
vn 0.205600 0.126800 0.970400
vn 0.528000 0.821300 0.216200
vn 0.504900 0.827600 0.245200
vn 0.495500 0.770700 0.400600
vn 0.473500 0.765900 0.435000
vn 0.436300 0.684000 0.584700
vn 0.393500 0.562300 0.727300
vn 0.332700 0.362800 0.870400
vn 0.244200 0.943100 0.225500
vn 0.226900 0.848700 0.477800
vn 0.183200 0.682700 0.707400
vn 0.142200 0.482000 0.864600
vn 0.088800 0.249300 0.964300
vn 0.039600 0.056700 0.997600
vn 0.057200 -0.049500 0.997100
vn 0.016600 -0.050900 0.998600
vn 0.283600 0.244500 0.927200
vn 0.380100 0.447100 0.809700
vn 0.475800 0.843700 0.248600
vn 0.461300 0.706200 0.537100
vn 0.425600 0.610900 0.667600
vn 0.091100 -0.094000 0.991400
vn -0.198100 0.239600 -0.950400
vn -0.214600 0.499100 -0.839600
vn -0.197400 0.477800 -0.856000
vn -0.208100 0.359100 -0.909800
vn -0.215600 0.711100 -0.669200
vn -0.196900 0.695100 -0.691400
vn -0.207900 0.880400 -0.426300
vn -0.189600 0.878400 -0.438600
vn -0.201800 0.958700 -0.200400
vn -0.186000 0.955800 -0.227800
vn -0.203800 0.979000 -0.000000
vn -0.187300 0.982300 -0.000000
vn -0.225200 0.748300 -0.624000
vn -0.227800 0.579500 -0.782500
vn -0.223700 0.885700 -0.406800
vn -0.215600 0.958000 -0.189000
vn -0.213900 0.976800 -0.000000
vn -0.237600 0.694700 -0.678900
vn -0.231900 0.469000 -0.852200
vn -0.194900 0.080700 -0.977500
vn -0.182000 -0.044700 -0.982300
vn -0.186800 -0.105100 -0.976800
vn -0.236600 0.783400 -0.574800
vn -0.229800 0.897500 -0.376300
vn -0.222200 0.960100 -0.169700
vn -0.221100 0.975300 -0.000000
vn -0.214600 0.499100 0.839600
vn -0.198100 0.239600 0.950400
vn -0.197400 0.477800 0.856000
vn -0.208100 0.359100 0.909800
vn -0.215600 0.711100 0.669200
vn -0.196900 0.695100 0.691400
vn -0.207900 0.880400 0.426300
vn -0.189500 0.878400 0.438600
vn -0.186000 0.955800 0.227800
vn -0.201800 0.958700 0.200400
vn -0.225200 0.748300 0.623900
vn -0.227800 0.579500 0.782500
vn -0.223700 0.885700 0.406800
vn -0.215600 0.958000 0.189000
vn -0.237600 0.694700 0.678900
vn -0.231900 0.468900 0.852200
vn -0.194900 0.080700 0.977500
vn -0.186800 -0.105100 0.976800
vn -0.182000 -0.044700 0.982300
vn -0.186300 0.982500 -0.000000
vn -0.184700 0.951500 0.246100
vn -0.182000 0.855800 0.484300
vn -0.185600 0.662100 0.726100
vn -0.188300 0.452400 0.871700
vn -0.183000 0.153800 0.971000
vn -0.236600 0.783400 0.574800
vn -0.229800 0.897500 0.376300
vn -0.222200 0.960100 0.169700
vn -0.184700 0.951500 -0.246100
vn -0.182000 0.855800 -0.484300
vn -0.185600 0.662100 -0.726100
vn -0.188200 0.452400 -0.871700
vn -0.183000 0.153800 -0.971000
# 216 vertex normals

vt 0.576660 -0.564941 0.000000
vt 0.653320 -0.538574 0.000000
vt 0.631348 -0.512695 0.000000
vt 0.598145 -0.590820 0.000000
vt 0.607910 -0.486328 0.000000
vt 0.553711 -0.538574 0.000000
vt 0.585449 -0.461670 0.000000
vt 0.531738 -0.514160 0.000000
vt 0.562988 -0.438477 0.000000
vt 0.509766 -0.491699 0.000000
vt 0.735840 -0.409668 0.000000
vt 0.794434 -0.387695 0.000000
vt 0.782227 -0.362061 0.000000
vt 0.751953 -0.436279 0.000000
vt 0.715820 -0.381348 0.000000
vt 0.765625 -0.333008 0.000000
vt 0.693848 -0.354492 0.000000
vt 0.745117 -0.305176 0.000000
vt 0.671387 -0.329834 0.000000
vt 0.722168 -0.279053 0.000000
vt 0.370361 -0.788086 0.000000
vt 0.431885 -0.741211 0.000000
vt 0.353516 -0.768066 0.000000
vt 0.412842 -0.717773 0.000000
vt 0.392578 -0.693848 0.000000
vt 0.334229 -0.746582 0.000000
vt 0.278320 -0.795410 0.000000
vt 0.314941 -0.725586 0.000000
vt 0.259766 -0.777832 0.000000
vt 0.295654 -0.705566 0.000000
vt 0.241455 -0.759766 0.000000
vt 0.708496 -0.482666 0.000000
vt 0.688477 -0.457520 0.000000
vt 0.665527 -0.430420 0.000000
vt 0.642578 -0.405029 0.000000
vt 0.619629 -0.381348 0.000000
vt 0.491211 -0.692871 0.000000
vt 0.469971 -0.666504 0.000000
vt 0.448242 -0.641602 0.000000
vt 0.426514 -0.618164 0.000000
vt 0.371826 -0.670898 0.000000
vt 0.405273 -0.596191 0.000000
vt 0.352051 -0.649414 0.000000
vt 0.467041 -0.790039 0.000000
vt 0.530762 -0.744141 0.000000
vt 0.448486 -0.764160 0.000000
vt 0.510254 -0.717285 0.000000
vt 0.645996 -0.651855 0.000000
vt 0.728516 -0.628906 0.000000
vt 0.701172 -0.596191 0.000000
vt 0.672852 -0.685547 0.000000
vt 0.776367 -0.568359 0.000000
vt 0.751465 -0.537109 0.000000
vt 0.818359 -0.451416 0.000000
vt 0.784180 -0.495605 0.000000
vt 0.831055 -0.484863 0.000000
vt 0.803223 -0.528320 0.000000
vt 0.386963 -0.808105 0.000000
vt 0.621582 -0.620117 0.000000
vt 0.676270 -0.566406 0.000000
vt 0.729492 -0.509277 0.000000
vt 0.767578 -0.464844 0.000000
vt 0.806641 -0.417969 0.000000
vt 0.405273 -0.832520 0.000000
vt 0.205200 -0.829590 0.000000
vt 0.188721 -0.812500 0.000000
vt 0.221191 -0.844727 0.000000
vt 0.457764 -0.543457 0.000000
vt 0.479736 -0.565918 0.000000
vt 0.501953 -0.589844 0.000000
vt 0.524414 -0.615723 0.000000
vt 0.545898 -0.641113 0.000000
vt 0.568359 -0.668945 0.000000
vt 0.591309 -0.698242 0.000000
vt 0.551270 -0.772949 0.000000
vt 0.617188 -0.730957 0.000000
vt 0.333252 -0.849609 0.000000
vt 0.324951 -0.841309 0.000000
vt 0.298828 -0.854980 0.000000
vt 0.237427 -0.857910 0.000000
vt 0.296631 -0.812988 0.000000
vt 0.260986 -0.857910 0.000000
vt 0.310791 -0.827148 0.000000
vt 0.479004 -0.807129 0.000000
vt 0.462402 -0.347900 0.000000
vt 0.436279 -0.424561 0.000000
vt 0.488525 -0.370117 0.000000
vt 0.410400 -0.403076 0.000000
vt 0.514648 -0.393066 0.000000
vt 0.462646 -0.447266 0.000000
vt 0.539551 -0.415771 0.000000
vt 0.486816 -0.469482 0.000000
vt 0.613281 -0.206909 0.000000
vt 0.591309 -0.265625 0.000000
vt 0.639160 -0.218994 0.000000
vt 0.564941 -0.249390 0.000000
vt 0.620117 -0.285645 0.000000
vt 0.667969 -0.235718 0.000000
vt 0.646484 -0.307129 0.000000
vt 0.696289 -0.255859 0.000000
vt 0.259766 -0.569336 0.000000
vt 0.233276 -0.647949 0.000000
vt 0.283447 -0.588379 0.000000
vt 0.213135 -0.630859 0.000000
vt 0.307373 -0.608398 0.000000
vt 0.254883 -0.666992 0.000000
vt 0.518555 -0.292480 0.000000
vt 0.543457 -0.312500 0.000000
vt 0.570801 -0.335693 0.000000
vt 0.596191 -0.358398 0.000000
vt 0.308594 -0.509766 0.000000
vt 0.334717 -0.531250 0.000000
vt 0.359619 -0.553223 0.000000
vt 0.383301 -0.574707 0.000000
vt 0.330566 -0.629395 0.000000
vt 0.237183 -0.552734 0.000000
vt 0.283691 -0.490723 0.000000
vt 0.257324 -0.470459 0.000000
vt 0.211182 -0.534180 0.000000
vt 0.349609 -0.355225 0.000000
vt 0.372559 -0.272705 0.000000
vt 0.315674 -0.328369 0.000000
vt 0.405273 -0.300293 0.000000
vt 0.463867 -0.249878 0.000000
vt 0.432861 -0.224731 0.000000
vt 0.505859 -0.216919 0.000000
vt 0.549805 -0.182617 0.000000
vt 0.516602 -0.170288 0.000000
vt 0.472656 -0.198242 0.000000
vt 0.193115 -0.614258 0.000000
vt 0.381104 -0.379883 0.000000
vt 0.434814 -0.324707 0.000000
vt 0.491943 -0.271729 0.000000
vt 0.536133 -0.233521 0.000000
vt 0.583008 -0.194824 0.000000
vt 0.168701 -0.596191 0.000000
vt 0.171875 -0.795898 0.000000
vt 0.223389 -0.741699 0.000000
vt 0.156616 -0.780273 0.000000
vt 0.205811 -0.723145 0.000000
vt 0.188232 -0.704590 0.000000
vt 0.173950 -0.690430 0.000000
vt 0.159790 -0.676270 0.000000
vt 0.435303 -0.521484 0.000000
vt 0.411621 -0.499268 0.000000
vt 0.385254 -0.476562 0.000000
vt 0.359863 -0.455322 0.000000
vt 0.332275 -0.432861 0.000000
vt 0.302979 -0.409668 0.000000
vt 0.228271 -0.450195 0.000000
vt 0.270264 -0.384033 0.000000
vt 0.151489 -0.667969 0.000000
vt 0.146240 -0.702148 0.000000
vt 0.275635 -0.686523 0.000000
vt 0.143311 -0.763672 0.000000
vt 0.143188 -0.740234 0.000000
vt 0.193970 -0.522461 0.000000
vt 0.895020 -0.264648 0.000000
vt 0.919434 -0.184814 0.000000
vt 0.876465 -0.253906 0.000000
vt 0.939453 -0.187500 0.000000
vt 0.901367 -0.180664 0.000000
vt 0.859375 -0.243286 0.000000
vt 0.884766 -0.173950 0.000000
vt 0.841797 -0.230103 0.000000
vt 0.867676 -0.162720 0.000000
vt 0.822754 -0.214233 0.000000
vt 0.852051 -0.149292 0.000000
vt 0.804199 -0.197144 0.000000
vt 0.938477 -0.124512 0.000000
vt 0.951660 -0.129517 0.000000
vt 0.926270 -0.118042 0.000000
vt 0.914062 -0.109009 0.000000
vt 0.902344 -0.098755 0.000000
vt 0.983887 -0.073914 0.000000
vt 0.961426 -0.131958 0.000000
vt 0.906738 -0.270508 0.000000
vt 0.861328 -0.380127 0.000000
vt 0.868652 -0.379395 0.000000
vt 0.976074 -0.068176 0.000000
vt 0.968262 -0.061920 0.000000
vt 0.960449 -0.054962 0.000000
vt 0.953125 -0.048126 0.000000
vt 0.816406 -0.081665 0.000000
vt 0.736328 -0.106079 0.000000
vt 0.747070 -0.124695 0.000000
vt 0.813965 -0.061859 0.000000
vt 0.820801 -0.099731 0.000000
vt 0.757812 -0.141724 0.000000
vt 0.827148 -0.116394 0.000000
vt 0.770996 -0.159424 0.000000
vt 0.787109 -0.178345 0.000000
vt 0.838379 -0.133545 0.000000
vt 0.876953 -0.062622 0.000000
vt 0.871582 -0.049683 0.000000
vt 0.883301 -0.074829 0.000000
vt 0.892090 -0.087341 0.000000
vt 0.927246 -0.017471 0.000000
vt 0.869141 -0.039734 0.000000
vt 0.730957 -0.094482 0.000000
vt 0.621582 -0.132690 0.000000
vt 0.621094 -0.140137 0.000000
vt 0.756348 -0.244873 0.000000
vt 0.733887 -0.223999 0.000000
vt 0.711914 -0.205322 0.000000
vt 0.689941 -0.188721 0.000000
vt 0.670410 -0.175049 0.000000
vt 0.646484 -0.158813 0.000000
vt 0.933105 -0.025436 0.000000
vt 0.939453 -0.033295 0.000000
vt 0.946289 -0.041107 0.000000
vt 0.777344 -0.267334 0.000000
vt 0.795898 -0.289307 0.000000
vt 0.812500 -0.311279 0.000000
vt 0.826172 -0.330811 0.000000
vt 0.842285 -0.354492 0.000000
# 216 texture coords

o F_16Canopy
g F_16Canopy
f 1/1/1 2/2/2 3/3/3 
f 2/2/2 1/1/1 4/4/4 
f 5/5/5 1/1/1 3/3/3 
f 1/1/1 5/5/5 6/6/6 
f 7/7/7 6/6/6 5/5/5 
f 6/6/6 7/7/7 8/8/8 
f 9/9/9 8/8/8 7/7/7 
f 8/8/8 9/9/9 10/10/10 
f 11/11/11 12/12/12 13/13/13 
f 12/12/12 11/11/11 14/14/14 
f 13/13/13 15/15/15 11/11/11 
f 15/15/15 13/13/13 16/16/16 
f 16/16/16 17/17/17 15/15/15 
f 17/17/17 16/16/16 18/18/18 
f 18/18/18 19/19/19 17/17/17 
f 19/19/19 18/18/18 20/20/20 
f 21/21/21 22/22/22 23/23/23 
f 23/23/23 22/22/22 24/24/24 
f 23/23/23 24/24/24 25/25/25 
f 25/25/25 26/26/26 23/23/23 
f 27/27/27 28/28/28 29/29/29 
f 28/28/28 27/27/27 26/26/26 
f 29/29/29 30/30/30 31/31/31 
f 30/30/30 29/29/29 28/28/28 
f 3/3/3 32/32/32 33/33/33 
f 32/32/32 3/3/3 2/2/2 
f 34/34/34 5/5/5 33/33/33 
f 3/3/3 33/33/33 5/5/5 
f 34/34/34 7/7/7 5/5/5 
f 7/7/7 34/34/34 35/35/35 
f 36/36/36 9/9/9 35/35/35 
f 7/7/7 35/35/35 9/9/9 
f 24/24/24 37/37/37 38/38/38 
f 37/37/37 24/24/24 22/22/22 
f 24/24/24 38/38/38 39/39/39 
f 24/24/24 39/39/39 25/25/25 
f 40/40/40 25/25/25 39/39/39 
f 25/25/25 40/40/40 41/41/41 
f 41/41/41 40/40/40 42/42/42 
f 41/41/41 42/42/42 43/43/43 
f 44/44/44 45/45/45 46/46/46 
f 47/47/47 46/46/46 45/45/45 
f 48/48/48 49/49/49 50/50/50 
f 49/49/49 48/48/48 51/51/51 
f 50/50/50 52/52/52 53/53/53 
f 52/52/52 50/50/50 49/49/49 
f 54/54/54 55/55/55 56/56/56 
f 56/56/56 55/55/55 57/57/57 
f 58/58/58 46/46/46 21/21/21 
f 21/21/21 46/46/46 22/22/22 
f 59/59/59 50/50/50 60/60/60 
f 50/50/50 59/59/59 48/48/48 
f 60/60/60 53/53/53 61/61/61 
f 53/53/53 60/60/60 50/50/50 
f 62/62/62 54/54/54 63/63/63 
f 54/54/54 62/62/62 55/55/55 
f 58/58/58 44/44/44 46/46/46 
f 44/44/44 58/58/58 64/64/64 
f 12/12/12 14/14/14 63/63/63 
f 63/63/63 14/14/14 62/62/62 
f 2/2/2 61/61/61 32/32/32 
f 61/61/61 2/2/2 60/60/60 
f 59/59/59 60/60/60 4/4/4 
f 2/2/2 4/4/4 60/60/60 
f 22/22/22 47/47/47 37/37/37 
f 47/47/47 22/22/22 46/46/46 
f 65/65/65 29/29/29 31/31/31 
f 65/65/65 31/31/31 66/66/66 
f 67/67/67 29/29/29 65/65/65 
f 29/29/29 67/67/67 27/27/27 
f 68/68/68 40/40/40 69/69/69 
f 40/40/40 68/68/68 42/42/42 
f 69/69/69 39/39/39 70/70/70 
f 39/39/39 69/69/69 40/40/40 
f 70/70/70 38/38/38 71/71/71 
f 38/38/38 70/70/70 39/39/39 
f 38/38/38 72/72/72 71/71/71 
f 72/72/72 38/38/38 37/37/37 
f 37/37/37 73/73/73 72/72/72 
f 73/73/73 37/37/37 47/47/47 
f 47/47/47 74/74/74 73/73/73 
f 74/74/74 47/47/47 45/45/45 
f 75/75/75 74/74/74 45/45/45 
f 74/74/74 75/75/75 76/76/76 
f 10/10/10 69/69/69 8/8/8 
f 69/69/69 10/10/10 68/68/68 
f 8/8/8 70/70/70 6/6/6 
f 70/70/70 8/8/8 69/69/69 
f 6/6/6 71/71/71 1/1/1 
f 71/71/71 6/6/6 70/70/70 
f 71/71/71 4/4/4 1/1/1 
f 4/4/4 71/71/71 72/72/72 
f 73/73/73 59/59/59 72/72/72 
f 4/4/4 72/72/72 59/59/59 
f 73/73/73 48/48/48 59/59/59 
f 48/48/48 73/73/73 74/74/74 
f 74/74/74 51/51/51 48/48/48 
f 51/51/51 74/74/74 76/76/76 
f 17/17/17 36/36/36 35/35/35 
f 36/36/36 17/17/17 19/19/19 
f 17/17/17 35/35/35 15/15/15 
f 34/34/34 15/15/15 35/35/35 
f 15/15/15 34/34/34 11/11/11 
f 33/33/33 11/11/11 34/34/34 
f 33/33/33 14/14/14 11/11/11 
f 14/14/14 33/33/33 32/32/32 
f 32/32/32 62/62/62 14/14/14 
f 62/62/62 32/32/32 61/61/61 
f 61/61/61 55/55/55 62/62/62 
f 55/55/55 61/61/61 53/53/53 
f 53/53/53 57/57/57 55/55/55 
f 57/57/57 53/53/53 52/52/52 
f 77/77/77 78/78/78 79/79/79 
f 26/26/26 41/41/41 28/28/28 
f 41/41/41 26/26/26 25/25/25 
f 28/28/28 43/43/43 30/30/30 
f 43/43/43 28/28/28 41/41/41 
f 77/77/77 58/58/58 78/78/78 
f 58/58/58 77/77/77 64/64/64 
f 27/27/27 80/80/80 81/81/81 
f 80/80/80 27/27/27 67/67/67 
f 81/81/81 82/82/82 83/83/83 
f 82/82/82 81/81/81 80/80/80 
f 83/83/83 79/79/79 78/78/78 
f 79/79/79 83/83/83 82/82/82 
f 44/44/44 64/64/64 84/84/84 
f 45/45/45 44/44/44 84/84/84 
f 45/45/45 84/84/84 75/75/75 
f 85/85/85 86/86/86 87/87/87 
f 86/86/86 85/85/85 88/88/88 
f 89/89/89 86/86/86 90/90/90 
f 86/86/86 89/89/89 87/87/87 
f 91/91/91 90/90/90 92/92/92 
f 90/90/90 91/91/91 89/89/89 
f 9/9/9 92/92/92 10/10/10 
f 92/92/92 9/9/9 91/91/91 
f 93/93/93 94/94/94 95/95/95 
f 94/94/94 93/93/93 96/96/96 
f 95/95/95 97/97/97 98/98/98 
f 97/97/97 95/95/95 94/94/94 
f 98/98/98 99/99/99 100/100/100 
f 99/99/99 98/98/98 97/97/97 
f 100/100/100 19/19/19 20/20/20 
f 19/19/19 100/100/100 99/99/99 
f 101/101/101 102/102/102 103/103/103 
f 102/102/102 101/101/101 104/104/104 
f 103/103/103 102/102/102 105/105/105 
f 106/106/106 105/105/105 102/102/102 
f 107/107/107 87/87/87 108/108/108 
f 87/87/87 107/107/107 85/85/85 
f 89/89/89 109/109/109 108/108/108 
f 89/89/89 108/108/108 87/87/87 
f 109/109/109 91/91/91 110/110/110 
f 91/91/91 109/109/109 89/89/89 
f 9/9/9 36/36/36 110/110/110 
f 9/9/9 110/110/110 91/91/91 
f 103/103/103 111/111/111 101/101/101 
f 111/111/111 103/103/103 112/112/112 
f 113/113/113 103/103/103 105/105/105 
f 103/103/103 113/113/113 112/112/112 
f 114/114/114 105/105/105 115/115/115 
f 105/105/105 114/114/114 113/113/113 
f 114/114/114 115/115/115 42/42/42 
f 43/43/43 42/42/42 115/115/115 
f 116/116/116 117/117/117 118/118/118 
f 116/116/116 118/118/118 119/119/119 
f 120/120/120 121/121/121 122/122/122 
f 121/121/121 120/120/120 123/123/123 
f 123/123/123 124/124/124 125/125/125 
f 123/123/123 125/125/125 121/121/121 
f 126/126/126 127/127/127 128/128/128 
f 128/128/128 129/129/129 126/126/126 
f 116/116/116 104/104/104 101/101/101 
f 104/104/104 116/116/116 130/130/130 
f 131/131/131 123/123/123 120/120/120 
f 123/123/123 131/131/131 132/132/132 
f 132/132/132 133/133/133 124/124/124 
f 132/132/132 124/124/124 123/123/123 
f 127/127/127 134/134/134 135/135/135 
f 134/134/134 127/127/127 126/126/126 
f 130/130/130 119/119/119 136/136/136 
f 119/119/119 130/130/130 116/116/116 
f 96/96/96 93/93/93 135/135/135 
f 135/135/135 134/134/134 96/96/96 
f 85/85/85 133/133/133 132/132/132 
f 133/133/133 85/85/85 107/107/107 
f 88/88/88 85/85/85 132/132/132 
f 88/88/88 132/132/132 131/131/131 
f 101/101/101 117/117/117 116/116/116 
f 117/117/117 101/101/101 111/111/111 
f 31/31/31 137/137/137 66/66/66 
f 137/137/137 31/31/31 138/138/138 
f 138/138/138 139/139/139 137/137/137 
f 139/139/139 138/138/138 140/140/140 
f 141/141/141 104/104/104 142/142/142 
f 104/104/104 141/141/141 102/102/102 
f 142/142/142 104/104/104 143/143/143 
f 143/143/143 104/104/104 130/130/130 
f 68/68/68 114/114/114 42/42/42 
f 114/114/114 68/68/68 144/144/144 
f 144/144/144 113/113/113 114/114/114 
f 113/113/113 144/144/144 145/145/145 
f 145/145/145 112/112/112 113/113/113 
f 112/112/112 145/145/145 146/146/146 
f 112/112/112 146/146/146 147/147/147 
f 112/112/112 147/147/147 111/111/111 
f 111/111/111 147/147/147 148/148/148 
f 111/111/111 148/148/148 117/117/117 
f 117/117/117 148/148/148 149/149/149 
f 117/117/117 149/149/149 118/118/118 
f 149/149/149 150/150/150 118/118/118 
f 150/150/150 149/149/149 151/151/151 
f 10/10/10 144/144/144 68/68/68 
f 144/144/144 10/10/10 92/92/92 
f 92/92/92 145/145/145 144/144/144 
f 145/145/145 92/92/92 90/90/90 
f 90/90/90 146/146/146 145/145/145 
f 146/146/146 90/90/90 86/86/86 
f 146/146/146 86/86/86 88/88/88 
f 146/146/146 88/88/88 147/147/147 
f 147/147/147 88/88/88 131/131/131 
f 147/147/147 131/131/131 148/148/148 
f 148/148/148 131/131/131 120/120/120 
f 148/148/148 120/120/120 149/149/149 
f 149/149/149 122/122/122 151/151/151 
f 122/122/122 149/149/149 120/120/120 
f 99/99/99 36/36/36 19/19/19 
f 36/36/36 99/99/99 110/110/110 
f 110/110/110 99/99/99 97/97/97 
f 110/110/110 97/97/97 109/109/109 
f 109/109/109 97/97/97 94/94/94 
f 109/109/109 94/94/94 108/108/108 
f 108/108/108 94/94/94 96/96/96 
f 108/108/108 96/96/96 107/107/107 
f 107/107/107 96/96/96 134/134/134 
f 107/107/107 134/134/134 133/133/133 
f 133/133/133 134/134/134 126/126/126 
f 133/133/133 126/126/126 124/124/124 
f 124/124/124 126/126/126 129/129/129 
f 124/124/124 129/129/129 125/125/125 
f 152/152/152 153/153/153 143/143/143 
f 106/106/106 141/141/141 140/140/140 
f 141/141/141 106/106/106 102/102/102 
f 115/115/115 106/106/106 154/154/154 
f 106/106/106 115/115/115 105/105/105 
f 43/43/43 154/154/154 30/30/30 
f 154/154/154 43/43/43 115/115/115 
f 140/140/140 155/155/155 139/139/139 
f 155/155/155 140/140/140 141/141/141 
f 155/155/155 141/141/141 156/156/156 
f 142/142/142 156/156/156 141/141/141 
f 156/156/156 142/142/142 153/153/153 
f 143/143/143 153/153/153 142/142/142 
f 119/119/119 157/157/157 136/136/136 
f 118/118/118 157/157/157 119/119/119 
f 157/157/157 118/118/118 150/150/150 
f 143/143/143 130/130/130 152/152/152 
f 152/152/152 130/130/130 136/136/136 
f 154/154/154 140/140/140 138/138/138 
f 140/140/140 154/154/154 106/106/106 
f 30/30/30 138/138/138 31/31/31 
f 138/138/138 30/30/30 154/154/154 
f 81/81/81 23/23/23 26/26/26 
f 81/81/81 26/26/26 27/27/27 
f 81/81/81 21/21/21 23/23/23 
f 21/21/21 81/81/81 83/83/83 
f 21/21/21 83/83/83 78/78/78 
f 78/78/78 58/58/58 21/21/21 
f 158/158/158 159/159/159 160/160/160 
f 159/159/159 158/158/158 161/161/161 
f 160/160/160 162/162/162 163/163/163 
f 162/162/162 160/160/160 159/159/159 
f 164/164/164 163/163/163 162/162/162 
f 163/163/163 164/164/164 165/165/165 
f 166/166/166 167/167/167 164/164/164 
f 165/165/165 164/164/164 167/167/167 
f 168/168/168 169/169/169 166/166/166 
f 167/167/167 166/166/166 169/169/169 
f 159/159/159 170/170/170 162/162/162 
f 170/170/170 159/159/159 171/171/171 
f 172/172/172 162/162/162 170/170/170 
f 162/162/162 172/172/172 164/164/164 
f 173/173/173 164/164/164 172/172/172 
f 164/164/164 173/173/173 166/166/166 
f 174/174/174 166/166/166 173/173/173 
f 166/166/166 174/174/174 168/168/168 
f 175/175/175 171/171/171 176/176/176 
f 177/177/177 178/178/178 179/179/179 
f 177/177/177 161/161/161 158/158/158 
f 180/180/180 170/170/170 175/175/175 
f 175/175/175 170/170/170 171/171/171 
f 181/181/181 172/172/172 180/180/180 
f 170/170/170 180/180/180 172/172/172 
f 182/182/182 173/173/173 181/181/181 
f 172/172/172 181/181/181 173/173/173 
f 182/182/182 174/174/174 173/173/173 
f 174/174/174 182/182/182 183/183/183 
f 176/176/176 171/171/171 159/159/159 
f 184/184/184 185/185/185 186/186/186 
f 185/185/185 184/184/184 187/187/187 
f 188/188/188 186/186/186 189/189/189 
f 186/186/186 188/188/188 184/184/184 
f 190/190/190 189/189/189 191/191/191 
f 189/189/189 190/190/190 188/188/188 
f 192/192/192 193/193/193 190/190/190 
f 192/192/192 190/190/190 191/191/191 
f 193/193/193 169/169/169 168/168/168 
f 169/169/169 193/193/193 192/192/192 
f 194/194/194 184/184/184 188/188/188 
f 184/184/184 194/194/194 195/195/195 
f 196/196/196 188/188/188 190/190/190 
f 188/188/188 196/196/196 194/194/194 
f 197/197/197 190/190/190 193/193/193 
f 190/190/190 197/197/197 196/196/196 
f 174/174/174 193/193/193 168/168/168 
f 193/193/193 174/174/174 197/197/197 
f 198/198/198 199/199/199 195/195/195 
f 200/200/200 201/201/201 202/202/202 
f 200/200/200 185/185/185 187/187/187 
f 203/203/203 169/169/169 192/192/192 
f 203/203/203 192/192/192 204/204/204 
f 204/204/204 192/192/192 191/191/191 
f 204/204/204 191/191/191 205/205/205 
f 205/205/205 191/191/191 189/189/189 
f 205/205/205 189/189/189 206/206/206 
f 206/206/206 189/189/189 186/186/186 
f 186/186/186 207/207/207 206/206/206 
f 207/207/207 186/186/186 185/185/185 
f 185/185/185 208/208/208 207/207/207 
f 198/198/198 195/195/195 194/194/194 
f 194/194/194 209/209/209 198/198/198 
f 196/196/196 210/210/210 209/209/209 
f 196/196/196 209/209/209 194/194/194 
f 197/197/197 211/211/211 210/210/210 
f 197/197/197 210/210/210 196/196/196 
f 174/174/174 183/183/183 211/211/211 
f 174/174/174 211/211/211 197/197/197 
f 200/200/200 208/208/208 185/185/185 
f 208/208/208 200/200/200 202/202/202 
f 199/199/199 187/187/187 184/184/184 
f 167/167/167 203/203/203 212/212/212 
f 203/203/203 167/167/167 169/169/169 
f 165/165/165 212/212/212 213/213/213 
f 212/212/212 165/165/165 167/167/167 
f 163/163/163 213/213/213 214/214/214 
f 213/213/213 163/163/163 165/165/165 
f 214/214/214 160/160/160 163/163/163 
f 160/160/160 214/214/214 215/215/215 
f 215/215/215 158/158/158 160/160/160 
f 158/158/158 215/215/215 216/216/216 
f 216/216/216 177/177/177 158/158/158 
f 177/177/177 216/216/216 178/178/178 
f 199/199/199 184/184/184 195/195/195 
f 176/176/176 159/159/159 161/161/161 
# 354 faces

