# Blender 5.0.1
# www.blender.org
o F-16-canopy.001
v 53.084904 9.978477 -2.689416
v 45.245399 10.494300 -1.900674
v 49.208313 9.674222 -2.800323
v 44.840130 11.322135 -0.615500
v 48.333851 11.698715 -0.742606
v 49.604378 10.903195 -2.021977
v 53.050758 11.476592 -1.233747
v 58.616043 9.535370 -1.854818
v 49.481773 8.169719 -3.101396
v 52.761555 6.571483 -3.129071
v 46.689804 7.519597 -2.721581
v 45.910553 9.122075 -2.611481
v 57.274353 9.139128 -2.578342
v 66.437767 6.277808 0.767364
v 66.400871 6.188424 -0.239594
v 58.765396 10.286886 -0.627120
v 54.937416 10.986347 -1.599277
v 54.833370 8.159210 -3.174142
v 59.824211 6.979875 -2.883307
v 56.153385 6.197684 -3.115119
v 48.000195 11.910662 1.292494
v 49.391590 7.052692 -3.004719
v 64.183350 5.827099 -2.019608
v 62.922890 7.794283 -1.125279
v 66.076591 5.780268 -0.969432
v 61.169342 5.906368 -2.719259
v 52.985012 11.949780 0.248366
v 44.840126 11.322141 2.150212
v 44.721523 11.567721 0.767365
v 61.533432 7.588076 3.716259
v 58.616325 9.535269 3.389504
v 49.604218 10.903176 3.556691
v 53.053963 11.641973 2.493890
v 59.824181 6.979887 4.418038
v 52.761642 6.571488 4.663799
v 46.689800 7.519586 4.256307
v 49.481762 8.169733 4.636124
v 45.910610 9.121956 4.146249
v 45.245411 10.494267 3.435428
v 66.345512 6.106376 1.886466
v 58.765266 10.286961 2.161826
v 55.942093 11.139181 2.418368
v 57.274071 9.139228 4.113074
v 56.153175 6.197714 4.649858
v 56.412056 11.318965 0.350150
v 53.814671 10.229854 4.057291
v 54.833485 8.159198 4.708866
v 48.163818 11.475482 2.654686
v 49.208366 9.674181 4.335064
v 49.391964 7.052649 4.539476
v 62.923210 7.794046 2.660067
v 59.244587 10.381771 0.767365
v 66.076599 5.780314 2.504175
v 61.169121 5.906379 4.254030
v 64.183655 5.827109 3.554212
v 63.992523 7.839590 1.080224
v 61.533752 7.587918 -2.181505
v 38.560520 9.006890 -1.266441
v 35.174416 9.180385 -0.332551
v 38.566044 10.237407 -0.185351
v 44.576542 8.226318 -2.424917
v 41.229603 8.744020 -1.840628
v 38.560497 9.006887 2.801164
v 38.565968 10.237401 1.720067
v 44.576542 8.226304 3.959643
v 44.692127 8.411865 4.001709
v 41.229603 8.744019 3.375355
v 43.421066 11.073206 2.147410
v 43.693855 10.511161 3.120573
v 35.174412 9.180389 1.867286
v 35.183708 9.590043 0.292903
v 35.183868 9.529041 1.360273
v 44.130589 9.591369 3.833904
v 43.305130 11.330551 0.767361
v 43.421066 11.073216 -0.612690
v 43.693855 10.511172 -1.585838
v 44.130585 9.591358 -2.299176
v 44.692127 8.411860 -2.466980
vn 0.0461 0.4929 -0.8689
vn -0.1089 0.6868 -0.7187
vn -0.0548 0.3710 -0.9270
vn -0.0988 0.9325 -0.3473
vn -0.0697 0.9319 -0.3558
vn -0.0342 0.7045 -0.7089
vn 0.0791 0.8646 -0.4961
vn 0.3052 0.6870 -0.6595
vn -0.0638 0.0553 -0.9964
vn -0.0136 -0.0225 -0.9997
vn -0.1321 -0.0120 -0.9912
vn -0.1219 0.2720 -0.9545
vn 0.1731 0.4736 -0.8636
vn 0.5407 0.8407 0.0294
vn 0.5006 0.7983 -0.3348
vn 0.3631 0.8598 -0.3591
vn 0.1710 0.8032 -0.5707
vn 0.0470 0.1574 -0.9864
vn 0.1590 0.1726 -0.9721
vn 0.0452 -0.0065 -0.9990
vn -0.0649 0.9930 0.0986
vn -0.0812 -0.0794 -0.9935
vn 0.3873 0.5029 -0.7727
vn 0.4444 0.7405 -0.5042
vn 0.4475 0.6465 -0.6178
vn 0.1983 0.0995 -0.9751
vn 0.0945 0.9916 -0.0884
vn -0.1247 0.9236 0.3626
vn -0.1013 0.9947 -0.0172
vn 0.3295 0.5090 0.7952
vn 0.3018 0.6874 0.6606
vn -0.0287 0.6999 0.7137
vn 0.0892 0.9127 0.3989
vn 0.1590 0.1726 0.9721
vn -0.0136 -0.0225 0.9997
vn -0.1321 -0.0120 0.9912
vn -0.0638 0.0553 0.9964
vn -0.1219 0.2720 0.9546
vn -0.1163 0.6809 0.7231
vn 0.5103 0.7762 0.3702
vn 0.3560 0.8668 0.3491
vn 0.2211 0.8899 0.3990
vn 0.1741 0.4787 0.8605
vn 0.0452 -0.0065 0.9990
vn 0.2493 0.9641 -0.0915
vn 0.0861 0.5682 0.8184
vn 0.0444 0.1603 0.9861
vn -0.0673 0.8793 0.4715
vn -0.0529 0.3714 0.9270
vn -0.0812 -0.0794 0.9935
vn 0.4431 0.7342 0.5144
vn 0.4074 0.9133 -0.0008
vn 0.4520 0.6546 0.6060
vn 0.1983 0.0995 0.9751
vn 0.3873 0.5029 0.7727
vn 0.4947 0.8660 0.0726
vn 0.3295 0.5090 -0.7952
vn -0.2083 0.4698 -0.8578
vn -0.2274 0.7772 -0.5868
vn -0.2126 0.9004 -0.3797
vn -0.1868 -0.1051 -0.9768
vn -0.1922 0.1276 -0.9730
vn -0.2083 0.4698 0.8578
vn -0.2187 0.9084 0.3563
vn -0.1868 -0.1051 0.9768
vn -0.1804 -0.0264 0.9832
vn -0.1922 0.1276 0.9730
vn -0.1894 0.9021 0.3876
vn -0.2030 0.6642 0.7195
vn -0.2240 0.7680 0.6001
vn -0.2304 0.9419 -0.2444
vn -0.2264 0.9235 0.3096
vn -0.1917 0.2523 0.9485
vn -0.1894 0.9819 -0.0000
vn -0.1894 0.9021 -0.3876
vn -0.2030 0.6641 -0.7195
vn -0.1917 0.2523 -0.9485
vn -0.1804 -0.0264 -0.9832
vt 0.540118 -0.582078
vt 0.614902 -0.574952
vt 0.676183 -0.468916
vt 0.572214 -0.520738
vt 0.785568 -0.369076
vt 0.716566 -0.495930
vt 0.672120 -0.401729
vt 0.755375 -0.319098
vt 0.628248 -0.352347
vt 0.722168 -0.279053
vt 0.329678 -0.769489
vt 0.390588 -0.771496
vt 0.459543 -0.675863
vt 0.426490 -0.638883
vt 0.542463 -0.481121
vt 0.511446 -0.673720
vt 0.605496 -0.661194
vt 0.695013 -0.662997
vt 0.747096 -0.541149
vt 0.777251 -0.567042
vt 0.809264 -0.425455
vt 0.831055 -0.484863
vt 0.460133 -0.772625
vt 0.217712 -0.840919
vt 0.255752 -0.733975
vt 0.188721 -0.812500
vt 0.467136 -0.553038
vt 0.385218 -0.616247
vt 0.595487 -0.744782
vt 0.314194 -0.851999
vt 0.424546 -0.825883
vt 0.237910 -0.857910
vt 0.425104 -0.411013
vt 0.489014 -0.435671
vt 0.532163 -0.325098
vt 0.632076 -0.215686
vt 0.505249 -0.284477
vt 0.591148 -0.315044
vt 0.682124 -0.245785
vt 0.229585 -0.610622
vt 0.231858 -0.671670
vt 0.325352 -0.541686
vt 0.362471 -0.574807
vt 0.327571 -0.489614
vt 0.338319 -0.306210
vt 0.340072 -0.395718
vt 0.460156 -0.254199
vt 0.434159 -0.223867
vt 0.575572 -0.192090
vt 0.516602 -0.170288
vt 0.228651 -0.541067
vt 0.160145 -0.783886
vt 0.149163 -0.686907
vt 0.419240 -0.506415
vt 0.256443 -0.405808
vt 0.143308 -0.763191
vt 0.175309 -0.576910
vt 0.941146 -0.184560
vt 0.983879 -0.073933
vt 0.835816 -0.344663
vt 0.812684 -0.311013
vt 0.885070 -0.173916
vt 0.964743 -0.058606
vt 0.756350 -0.244871
vt 0.906738 -0.270508
vt 0.861328 -0.380127
vt 0.868652 -0.379395
vt 0.927227 -0.017479
vt 0.816924 -0.060173
vt 0.656413 -0.165332
vt 0.690207 -0.188537
vt 0.827181 -0.116097
vt 0.939818 -0.033591
vt 0.730957 -0.094482
vt 0.621582 -0.132690
vt 0.621094 -0.140137
vt 0.721203 -0.213218
vt 0.788054 -0.280018
s 1
f 17/1/17 1/2/1 6/3/6
f 7/4/7 17/1/17 6/3/6
f 2/5/2 6/3/6 3/6/3
f 2/5/2 5/7/5 6/3/6
f 5/7/5 2/5/2 4/8/4
f 4/8/4 21/9/21 5/7/5
f 21/9/21 4/8/4 29/10/29
f 24/11/24 57/12/57 8/13/8
f 24/11/24 8/13/8 16/14/16
f 3/6/3 6/3/6 1/2/1
f 5/7/5 7/4/7 6/3/6
f 5/7/5 27/15/27 7/4/7
f 21/9/21 27/15/27 5/7/5
f 13/16/13 8/13/8 57/12/57
f 18/17/18 10/18/10 9/19/9
f 22/20/22 9/19/9 10/18/10
f 12/21/12 9/19/9 11/22/11
f 11/22/11 9/19/9 22/20/22
f 18/17/18 9/19/9 3/6/3
f 12/21/12 3/6/3 9/19/9
f 2/5/2 3/6/3 12/21/12
f 18/17/18 3/6/3 1/2/1
f 57/12/57 19/23/19 13/16/13
f 15/24/15 56/25/56 14/26/14
f 16/14/16 45/27/45 52/28/52
f 45/27/45 16/14/16 17/1/17
f 8/13/8 17/1/17 16/14/16
f 8/13/8 13/16/13 17/1/17
f 18/17/18 13/16/13 19/23/19
f 20/29/20 18/17/18 19/23/19
f 27/15/27 17/1/17 7/4/7
f 17/1/17 27/15/27 45/27/45
f 1/2/1 17/1/17 13/16/13
f 1/2/1 13/16/13 18/17/18
f 10/18/10 18/17/18 20/29/20
f 24/11/24 16/14/16 15/24/15
f 15/24/15 52/28/52 56/25/56
f 52/28/52 15/24/15 16/14/16
f 19/23/19 23/30/23 26/31/26
f 25/32/25 24/11/24 15/24/15
f 24/11/24 25/32/25 57/12/57
f 23/30/23 57/12/57 25/32/25
f 19/23/19 26/31/26 20/29/20
f 46/33/46 33/34/33 32/35/32
f 32/35/32 39/36/39 49/37/49
f 39/36/39 48/38/48 28/39/28
f 48/38/48 39/36/39 32/35/32
f 21/9/21 28/39/28 48/38/48
f 28/39/28 21/9/21 29/10/29
f 30/40/30 51/41/51 31/42/31
f 31/42/31 51/41/51 41/43/41
f 32/35/32 49/37/49 46/33/46
f 33/34/33 48/38/48 32/35/32
f 48/38/48 33/34/33 21/9/21
f 27/15/27 21/9/21 33/34/33
f 31/42/31 43/44/43 30/40/30
f 35/45/35 47/46/47 37/47/37
f 37/47/37 50/48/50 35/45/35
f 37/47/37 38/49/38 36/50/36
f 36/50/36 50/48/50 37/47/37
f 37/47/37 47/46/47 49/37/49
f 49/37/49 38/49/38 37/47/37
f 49/37/49 39/36/39 38/49/38
f 46/33/46 49/37/49 47/46/47
f 34/51/34 30/40/30 43/44/43
f 56/25/56 40/52/40 14/26/14
f 40/52/40 56/25/56 51/41/51
f 55/53/55 30/40/30 34/51/34
f 45/27/45 41/43/41 52/28/52
f 41/43/41 45/27/45 42/54/42
f 42/54/42 31/42/31 41/43/41
f 31/42/31 42/54/42 46/33/46
f 31/42/31 46/33/46 43/44/43
f 43/44/43 47/46/47 34/51/34
f 47/46/47 44/55/44 34/51/34
f 27/15/27 42/54/42 45/27/45
f 42/54/42 27/15/27 33/34/33
f 33/34/33 46/33/46 42/54/42
f 43/44/43 46/33/46 47/46/47
f 47/46/47 35/45/35 44/55/44
f 41/43/41 51/41/51 56/25/56
f 56/25/56 52/28/52 41/43/41
f 51/41/51 53/56/53 40/52/40
f 30/40/30 53/56/53 51/41/51
f 53/56/53 30/40/30 55/53/55
f 54/57/54 34/51/34 44/55/44
f 55/53/55 34/51/34 54/57/54
f 23/30/23 19/23/19 57/12/57
f 58/58/58 59/59/59 77/60/77
f 77/60/77 59/59/59 76/61/76
f 60/62/60 76/61/76 59/59/59
f 59/59/59 71/63/71 60/62/60
f 60/62/60 71/63/71 74/64/74
f 62/65/62 78/66/78 61/67/61
f 70/68/70 63/69/63 73/70/73
f 70/68/70 73/70/73 69/71/69
f 69/71/69 64/72/64 70/68/70
f 72/73/72 70/68/70 64/72/64
f 71/63/71 64/72/64 74/64/74
f 64/72/64 71/63/71 72/73/72
f 67/74/67 65/75/65 66/76/66
f 74/64/74 64/72/64 68/77/68
f 68/77/68 64/72/64 69/71/69
f 67/74/67 73/70/73 63/69/63
f 73/70/73 67/74/67 66/76/66
f 60/62/60 74/64/74 75/78/75
f 75/78/75 76/61/76 60/62/60
f 77/60/77 62/65/62 58/58/58
f 62/65/62 77/60/77 78/66/78
